<svg version="1" xmlns="http://www.w3.org/2000/svg" width="1066.667" height="1066.667" viewBox="0 0 800.000000 800.000000"><path d="M584.2 82.7c-10.9 22.1-16.9 31-29.3 43.3-15.2 15.1-33.6 28.8-65.9 49-20.9 13-44.7 28.9-56.1 37.5-49.2 36.9-81.4 76.4-98.5 120.7-1.9 4.8-3.4 9-3.4 9.3 0 .4 3.3-2.3 7.3-6 13.2-12 31.5-23 53.2-31.8 6.1-2.5 28.3-10.4 49.5-17.7 63.6-21.8 88.3-32.3 104.1-44.2 45.4-34.2 66.9-104 51.7-167.8-1.1-4.7-2.4-8.9-2.8-9.4-.5-.4-4.9 7.2-9.8 17.1zM166.6 119.7c19.4 19.1 24.6 26.1 33.9 45.6 8.2 17 15.4 38.8 25.4 76.2 9.4 35.5 14.4 52 21.2 70.3 17.3 46.4 38.2 79.8 67.5 108.2 12.3 11.8 23 20.7 24 19.7.3-.3-1-3.6-2.9-7.3-5-10-10.2-27.1-12.6-41.4-2.6-15.8-3.8-34-4.6-69.5-1.2-58.5-3.7-91.1-8-108.2-3.2-12.4-12.3-31.1-20.5-42.3-25.2-34.3-69-59.5-115.8-66.5-5.3-.8-13.1-1.5-17.2-1.5h-7.4l17 16.7z"/><path d="M452.5 298.7c-16.5.7-45.7 5.1-47.9 7.3-.4.4 1.8 1.4 5 2 8.7 1.8 21.7 6.6 32.6 12 18.2 9.1 28.8 16.5 72.8 50.6 48 37.2 68.8 51.4 86 58.7 46.8 19.8 109.2 8.5 157-28.4 9.5-7.4 27-24.3 27-26.2 0-1.1-3.7-.8-26.5 1.9-37.6 4.4-61-1.5-130.5-32.9-54.5-24.7-85.5-35.2-120.5-41.2-16.9-2.9-40-4.5-55-3.8zM120.9 338.5c-30.3 4.8-59.9 17.7-84.4 37-8.2 6.5-23.2 21.1-22.4 21.9.2.2 6.7-.2 14.4-1.1 21.7-2.2 40.9-2 53 .7 22.4 4.9 42.5 12.8 83 32.5 45.1 22 70.4 32.4 97.1 40.1 42 12 78.6 14.4 117.7 7.8 5.3-1 9.7-2.1 9.7-2.6 0-.4-.9-.8-1.9-.8-3.6 0-20.6-6.1-30.6-10.9-19-9.3-33.3-19.8-84-61.6-46.5-38.4-69.8-53.7-90.5-59.5-18.1-5-42.4-6.4-61.1-3.5z"/><path d="M467.6 352.9c3.3 13 4.4 22.6 4.4 38.4 0 17-1.7 31.9-7.6 68.6-9.8 60.6-11.8 77.5-11.8 99.6 0 18 1 24.5 5.9 39.1 13.7 40.8 51.4 78.4 97.2 97 10.1 4 30.9 10.1 31.8 9.2.2-.2-4.9-7.8-11.3-16.9-13-18.3-18.8-28.5-22.7-40.4-7.1-21.7-10.4-42.3-14-88.1-3-37.8-4.8-53.8-8.1-73.4-7.7-44.9-21.2-80.9-41.9-112-7.4-11.2-22.1-29.8-23.6-30-.3 0 .5 4 1.7 8.9zM450.1 446.1c-18.2 19.7-37.6 31.3-95.1 57-32.3 14.4-72.1 34.2-82.5 41.1-10 6.6-23.1 19-30.5 29-12.1 16.1-21.8 39.5-26.2 62.6-3.2 16.9-3.2 47.6 0 64.5 2.4 12.4 9 33.9 10.7 34.4.6.1 3.7-6.8 7-15.5 10.2-27.1 16-37 31.9-54.7 10.6-11.8 26.6-25.8 53.1-46.3 29.9-23.2 38.7-30.4 54.7-44.9 36.1-32.7 61.6-68 76.2-105.5 4.7-11.9 9.9-29.8 8.8-29.7-.4 0-4 3.6-8.1 8z"/></svg>